# xmcd
# Track frame offsets:
# 150
# 18088
# 32597
# 47441
# 70030
# 86230
# 101140
# 120790
# 135340
# 157390
#
# Disc length: 2404 seconds
# Revision: 0
# Processed by: cddbd v1.5.2PL0 Copyright (c) Steve Scherf et al.
# Submitted via: VisiTrax 2.10.2.252 - For more info visit www.synapsa.com
#
DISCID=7509620a
DTITLE=Ingrid Savbrant - Blue for you
DYEAR=2007
DGENRE=Blues
TTITLE0=Ingrid Savbrant - Blue for you
TTITLE1=John Hiatt - Tennessee plates
TTITLE2=Wille Dixon - You can´t judge a book
TTITLE3=Ingrid Savbrant - Tell me It does not matter
TTITLE4=Ingrid Savbrant - Everytime
TTITLE5=Ingrid Savbrant - For my love
TTITLE6=Kep Mo - Soon as I get paid
TTITLE7=John Hiatt - Real man
TTITLE8=Daniel Lanois - The maker
TTITLE9=Ingrid Savbrant - Goldfish
EXTD=
EXTT0=
EXTT1=
EXTT2=
EXTT3=
EXTT4=
EXTT5=
EXTT6=
EXTT7=
EXTT8=
EXTT9=
PLAYORDER=
